# xmcd
#
# Track frame offsets:
#	150
#	1986
#	18794
#	36888
#	53363
#	67673
#	85140
#	102477
#	118199
#	132329
#	148746
#	166018
#	183149
#	199166
#	216897
#	233448
#	249996
#	265696
#
# Disc length: 3663 seconds
#
# Revision: 0
# Processed by: cddbd v1.5.2PL0 Copyright (c) Steve Scherf et al.
# Submitted via: EZCDAudioConverter 7.1.5.1
#
DISCID=e00e4d12
DTITLE=潘玮柏 - 未来式 新曲＋精选 CD1
DYEAR=2008
DGENRE=Pop
TTITLE0=Intro
TTITLE1=夏日疯
TTITLE2=白日梦
TTITLE3=壁虎漫步
TTITLE4=反转地球
TTITLE5=谁是MVP
TTITLE6=高手
TTITLE7=光荣
TTITLE8=决战斗室
TTITLE9=玩酷
TTITLE10=Wu Ha
TTITLE11=一指神功(Remix版)
TTITLE12=Shut Up
TTITLE13=Tell Me
TTITLE14=来电
TTITLE15=我的麦克风
TTITLE16=快乐崇拜
TTITLE17=Will Power
EXTD=
EXTT0=
EXTT1=
EXTT2=
EXTT3=
EXTT4=
EXTT5=
EXTT6=
EXTT7=
EXTT8=
EXTT9=
EXTT10=
EXTT11=
EXTT12=
EXTT13=
EXTT14=
EXTT15=
EXTT16=
EXTT17=
PLAYORDER=
